# xmcd
#
# Track frame offsets: 
#        150
#        29448
#        44571
#        66894
#        85617
#        99840
#        118788
#        133986
#        152034
#        171807
#        185355
#        206778
#        223476
#
# Disc length: 3432 seconds
#
# Revision: 0
# Processed by: cddbd v1.5.2PL0 Copyright (c) Steve Scherf et al.
# Submitted via: ExactAudioCopy v1.1
#
DISCID=c00d660d
DTITLE=Super Vintage - Salvation Road
DYEAR=2015
DGENRE=Blues-Rock
TTITLE0=Salvation Road
TTITLE1=Broke
TTITLE2=Black Crow
TTITLE3=Wounded Horse
TTITLE4=Better Days
TTITLE5=Holy Ground
TTITLE6=Seize The Day
TTITLE7=I Love You Less Than Rock N' Roll
TTITLE8=Don't Give A Damn
TTITLE9=Funk Yourself
TTITLE10=Wheels
TTITLE11=One More Day
TTITLE12=Queen Never Born
EXTD=
EXTT0=
EXTT1=
EXTT2=
EXTT3=
EXTT4=
EXTT5=
EXTT6=
EXTT7=
EXTT8=
EXTT9=
EXTT10=
EXTT11=
EXTT12=
PLAYORDER=
